<svg xmlns="http://www.w3.org/2000/svg" viewBox="827.43 411.64 254.82 57.03">
  <defs>
    <style>
      .st0 { fill: #f1ebe5; }
      .st3 { fill: blue; }
    </style>
  </defs>
  <rect class="st3" x="827.43" y="411.64" width="254.82" height="57.03"/>
  <g>
    <g>
      <g>
        <polygon class="st0" points="1004.66 430.83 998.61 430.83 1004.95 441.09 1004.66 430.83"/>
        <polygon class="st0" points="998.21 440.15 998.37 450.57 1004.55 450.57 998.21 440.15"/>
      </g>
      <path class="st0" d="M984.44,430.83v11.97h0c0,1.08-.88,1.96-1.96,1.96s-1.96-.88-1.96-1.96v-11.97h-7.18v11.68c0,5.76,3.61,8.38,9.14,8.38s9.14-2.62,9.14-8.38v-11.68h-7.18Z"/>
    </g>
    <g>
      <path class="st0" d="M863.86,450.57l-6.76-19.75h7.44l2.49,11.52,2.86-11.52h5.5l2.7,11.52,2.65-11.52h7.46l-6.84,19.75h-6.39l-2.33-10.74-2.51,10.74h-6.27Z"/>
      <path class="st0" d="M889.18,450.57v-19.75h13.28v5.39h-6.36v1.81h5.84v5.13h-5.84v2.02h6.57v5.4h-13.49Z"/>
      <path class="st0" d="M923.93,450.57l-.6-2.54h-5.39l-.66,2.54h-7.41l6.86-19.75h7.94l7.04,19.75h-7.78ZM919.16,443.32h3.04l-.68-2.8-.79-3.4c-.26,1.13-.55,2.23-.84,3.35l-.73,2.86h0Z"/>
      <path class="st0" d="M951.14,450.57h-8.22l-3.14-6.34h-.24v6.34h-6.91v-19.75h8.67c4.48,0,8.22,1.89,8.22,6.86,0,2.36-1.05,4.11-3.54,5.47l5.16,7.41h0ZM939.53,436.22v3.35h.6c1.18,0,2.36-.18,2.36-1.65s-1.05-1.7-2.3-1.7h-.66Z"/>
      <path class="st0" d="M951.92,450.57v-19.75h13.28v5.39h-6.36v1.81h5.84v5.13h-5.84v2.02h6.57v5.4h-13.49Z"/>
    </g>
    <path class="st0" d="M1011.41,450.57v-19.75h7.31c6.6,0,11.71,2.75,11.71,9.87,0,6.52-4.85,9.87-10.97,9.87h-8.05ZM1018.33,444.65h.71c2.38,0,4.22-1.23,4.22-3.95s-1.6-3.69-4.22-3.69h-.71v7.65h0Z"/>
    <path class="st0" d="M1029.16,440.75c0-6.18,4.92-10.24,10.92-10.24s10.92,4.06,10.92,10.24-4.92,10.14-10.92,10.14-10.92-3.8-10.92-10.14ZM1043.77,440.75c0-2.15-1.41-3.9-3.69-3.9s-3.69,1.75-3.69,3.9,1.49,3.8,3.69,3.8,3.69-1.55,3.69-3.8Z"/>
    <path class="st0" d="M1054.58,431.27c0,1.33-1.05,2.34-2.34,2.34s-2.34-1.01-2.34-2.34,1.05-2.32,2.34-2.32,2.34,1.01,2.34,2.32ZM1054.25,431.27c0-1.17-.89-2.01-2.01-2.01s-2.01.85-2.01,2.01.89,2.03,2.01,2.03,2.01-.84,2.01-2.03ZM1052.5,431.45l.65,1.05h-.43l-.57-1.01h-.2v.99h-.39v-2.42h.59c.5,0,.87.23.87.7,0,.33-.18.6-.52.7h0ZM1051.95,431.17h.15c.29,0,.52-.11.52-.41,0-.28-.23-.38-.53-.38h-.14v.79Z"/>
  </g>
</svg>
